<?xml version="1.0" encoding="utf-8"?>
<!-- Generator: Adobe Illustrator 16.0.0, SVG Export Plug-In . SVG Version: 6.00 Build 0)  -->
<!DOCTYPE svg PUBLIC "-//W3C//DTD SVG 1.1//EN" "http://www.w3.org/Graphics/SVG/1.1/DTD/svg11.dtd">
<svg version="1.1" id="Layer_1" xmlns="http://www.w3.org/2000/svg" xmlns:xlink="http://www.w3.org/1999/xlink" x="0px" y="0px"
	 width="200px" height="200px" viewBox="0 0 200 200" enable-background="new 0 0 200 200" xml:space="preserve">
<g>
	<path fill="#E81C4E" d="M165.576,67.355c0-36.159-29.419-65.576-65.576-65.576c-36.16,0-65.576,29.417-65.576,65.576
		c0,19.84,8.858,37.649,22.825,49.685l-3.041,72.167c-0.002,0.091-0.004,0.181-0.004,0.271c0,3.415,1.984,6.535,5.057,7.946
		c3.087,1.423,6.634,0.914,9.258-1.342L100,168.96l31.49,27.134c1.634,1.398,3.631,2.124,5.651,2.124
		c1.217,0,2.44-0.261,3.598-0.794c3.07-1.41,5.055-4.53,5.055-7.946c0-0.091-0.002-0.18-0.007-0.271l-3.041-72.165
		C156.717,105.008,165.576,87.196,165.576,67.355z M47.324,67.355c0-29.045,23.631-52.676,52.676-52.676
		c29.048,0,52.676,23.631,52.676,52.676S129.048,120.031,100,120.031C70.955,120.031,47.324,96.4,47.324,67.355z M132.487,179.924
		l-26.646-22.96c-3.331-3.11-8.354-3.114-11.688,0L67.511,179.92l2.292-54.367c9.043,4.711,19.314,7.379,30.197,7.379
		c10.882,0,21.152-2.668,30.195-7.379L132.487,179.924z"/>
	<path fill="#E81C4E" d="M86.811,89.519c1.208,1.224,2.851,1.914,4.569,1.918c0.007,0,0.014,0,0.02,0
		c1.709,0,3.352-0.68,4.562-1.893l32.681-32.68c2.521-2.519,2.521-6.603,0.001-9.121c-2.521-2.52-6.601-2.52-9.12,0L91.43,75.835
		L78.36,62.606c-2.504-2.535-6.588-2.561-9.123-0.056s-2.561,6.588-0.056,9.122L86.811,89.519z"/>
</g>
</svg>
