<?xml version="1.0" encoding="utf-8"?>
<!-- Generator: Adobe Illustrator 16.0.0, SVG Export Plug-In . SVG Version: 6.00 Build 0)  -->
<!DOCTYPE svg PUBLIC "-//W3C//DTD SVG 1.1//EN" "http://www.w3.org/Graphics/SVG/1.1/DTD/svg11.dtd">
<svg version="1.1" id="Layer_1" xmlns="http://www.w3.org/2000/svg" xmlns:xlink="http://www.w3.org/1999/xlink" x="0px" y="0px"
	 width="2834.65px" height="2834.649px" viewBox="0 0 2834.65 2834.649" enable-background="new 0 0 2834.65 2834.649"
	 xml:space="preserve">
<g>
	<path fill="#EA184D" d="M2800.408,839.843c-36.315-67.834-96.87-117.45-170.512-139.729
		c-73.642-22.291-151.554-14.548-219.376,21.767c-67.822,36.329-117.45,96.882-139.729,170.523
		c-14.848,49.053-16.06,99.954-4.695,148.545l-311.014,166.54c-94.597-132.81-242.055-225.333-411.479-246.65V695.432
		c122.607-33.068,213.108-145.186,213.108-278.095c0-158.823-129.214-288.036-288.036-288.036s-288.048,129.213-288.048,288.048
		c0,132.91,90.513,245.027,213.107,278.095v265.382c-216.393,27.236-397.056,170.636-477.328,365.698l-340.386-91.712
		c0.075-49.914-12.638-99.217-38.214-143.637c-38.375-66.686-100.428-114.439-174.707-134.458
		c-153.402-41.335-311.738,49.84-353.061,203.192c-20.018,74.291-9.903,151.929,28.473,218.603
		c38.375,66.673,100.428,114.439,174.707,134.458c24.938,6.717,50.239,10.039,75.402,10.039c49.765,0,98.905-13.025,143.212-38.512
		c44.42-25.564,80.186-61.791,105.199-104.988l340.397,91.724c-3.672,26.738-5.731,53.975-5.731,81.709
		c0,137.631,46.941,264.434,125.491,365.523l-249.572,249.574c-110.069-63.24-253.182-48.191-347.142,45.742
		c-112.305,112.305-112.305,295.041,0,407.359c56.158,56.158,129.912,84.23,203.68,84.23c73.754,0,147.521-28.072,203.679-84.23
		c93.947-93.961,108.995-237.072,45.743-347.129l249.573-249.572c101.09,78.549,227.881,125.49,365.523,125.49
		s264.433-46.941,365.523-125.49l249.573,249.572c-63.24,110.068-48.204,253.182,45.743,347.129
		c56.158,56.158,129.912,84.23,203.679,84.23s147.521-28.086,203.68-84.23c112.305-112.305,112.305-295.043,0-407.359
		c-93.947-93.947-237.072-108.982-347.129-45.742l-249.572-249.574c78.549-101.09,125.491-227.881,125.491-365.523
		c0-75.189-14.111-147.121-39.6-213.457l310.789-166.415c34.142,36.402,77.176,63.602,126.241,78.449
		c27.573,8.342,55.759,12.476,83.781,12.476c46.806,0,93.174-11.539,135.595-34.255c67.835-36.314,117.45-96.869,139.729-170.511
		S2836.723,907.665,2800.408,839.843L2800.408,839.843z M2611.702,1097.62c-32.531,17.433-69.908,21.142-105.236,10.439
		c-35.329-10.677-64.376-34.492-81.797-67.035c-17.434-32.531-21.13-69.921-10.439-105.249
		c10.677-35.329,34.491-64.376,67.035-81.797c20.355-10.901,42.597-16.434,65.05-16.434c13.438,0,26.962,1.985,40.187,5.981
		c35.328,10.678,64.375,34.492,81.797,67.035c17.433,32.531,21.129,69.908,10.439,105.236
		C2668.06,1051.152,2644.245,1080.199,2611.702,1097.62z M1915.783,1552.932c0,246.537-200.582,447.119-447.12,447.119
		s-447.12-200.582-447.12-447.119c0-246.539,200.582-447.121,447.12-447.121S1915.783,1306.394,1915.783,1552.932L1915.783,1552.932
		z M1330.483,417.349c0-76.202,61.99-138.18,138.18-138.18s138.18,61.99,138.18,138.18c0,76.189-61.99,138.179-138.18,138.179
		S1330.483,493.538,1330.483,417.349z M252.208,1368.272c-35.641-9.604-65.399-32.52-83.807-64.501
		c-18.419-31.994-23.265-69.233-13.662-104.874c19.818-73.579,95.808-117.3,169.375-97.481c35.641,9.604,65.4,32.506,83.819,64.501
		c18.407,31.994,23.253,69.233,13.649,104.874C401.764,1344.37,325.799,1388.091,252.208,1368.272z M701.862,2515.157
		c-53.86,53.873-141.538,53.873-195.424,0c-53.873-53.873-53.873-141.539,0-195.424c26.937-26.938,62.327-40.398,97.719-40.398
		c35.378,0,70.77,13.473,97.705,40.398C755.736,2373.618,755.736,2461.284,701.862,2515.157z M2430.888,2319.733
		c53.873,53.873,53.873,141.539,0,195.424c-53.86,53.873-141.539,53.873-195.424,0c-53.873-53.873-53.873-141.539,0-195.424
		c26.936-26.938,62.327-40.398,97.718-40.398C2368.561,2279.334,2403.951,2292.795,2430.888,2319.733z"/>
</g>
</svg>
