<?xml version="1.0" encoding="utf-8"?>
<!-- Generator: Adobe Illustrator 16.0.0, SVG Export Plug-In . SVG Version: 6.00 Build 0)  -->
<!DOCTYPE svg PUBLIC "-//W3C//DTD SVG 1.1//EN" "http://www.w3.org/Graphics/SVG/1.1/DTD/svg11.dtd">
<svg version="1.1" id="Layer_1" xmlns="http://www.w3.org/2000/svg" xmlns:xlink="http://www.w3.org/1999/xlink" x="0px" y="0px"
	 width="200px" height="200px" viewBox="0 0 200 200" enable-background="new 0 0 200 200" xml:space="preserve">
<g>
	<g>
		<g>
			<g>
				<path fill="#E81C4E" d="M161.775,174.289H25.706V38.219h100.365l8.491-13.606H25.706c-7.511,0-13.607,6.095-13.607,13.606
					v136.07c0,7.512,6.096,13.606,13.607,13.606h136.069c7.512,0,13.608-6.095,13.608-13.606V84.441l-13.608,21.812V174.289z"/>
				<path fill="#E81C4E" d="M184.691,12.556c-1.62-1.048-3.431-1.551-5.212-1.551c-3.103,0-6.138,1.524-7.975,4.314L97.537,122.023
					L68.921,89.368c-3.877-3.579-9.892-3.347-13.47,0.517c-3.579,3.865-3.334,9.893,0.53,13.458l34.399,39.256l0.83,0.952
					l0.871,0.993l0.354,0.219l0.721,0.722l1.864,0.856l0.422,0.205l2.925,0.503l0.122-0.028c2.585,0.015,5.158-0.938,7.047-2.992
					l0.776-1.253l0.041-0.055l81.099-116.992C190.324,21.347,189.086,15.441,184.691,12.556z"/>
			</g>
		</g>
	</g>
</g>
</svg>
